<svg width="361" height="57" viewBox="0 0 361 57" fill="none" xmlns="http://www.w3.org/2000/svg">
<rect x="1" y="1" width="359" height="55" rx="27.5" fill="url(#paint0_linear_618_20)" stroke="url(#paint1_linear_618_20)" stroke-width="2"/>
<rect x="1" y="1" width="359" height="55" rx="27.5" stroke="url(#paint2_linear_618_20)" stroke-width="2"/>
<path d="M146.592 31.416C146.592 30.328 146.843 29.352 147.344 28.488C147.856 27.624 148.544 26.952 149.408 26.472C150.283 25.9813 151.237 25.736 152.272 25.736C153.456 25.736 154.507 26.0293 155.424 26.616C156.352 27.192 157.024 28.0133 157.44 29.08H155.248C154.96 28.4933 154.56 28.056 154.048 27.768C153.536 27.48 152.944 27.336 152.272 27.336C151.536 27.336 150.88 27.5013 150.304 27.832C149.728 28.1627 149.275 28.6373 148.944 29.256C148.624 29.8747 148.464 30.5947 148.464 31.416C148.464 32.2373 148.624 32.9573 148.944 33.576C149.275 34.1947 149.728 34.6747 150.304 35.016C150.88 35.3467 151.536 35.512 152.272 35.512C152.944 35.512 153.536 35.368 154.048 35.08C154.56 34.792 154.96 34.3547 155.248 33.768H157.44C157.024 34.8347 156.352 35.656 155.424 36.232C154.507 36.808 153.456 37.096 152.272 37.096C151.227 37.096 150.272 36.856 149.408 36.376C148.544 35.8853 147.856 35.208 147.344 34.344C146.843 33.48 146.592 32.504 146.592 31.416ZM163.399 37.144C162.567 37.144 161.815 36.9573 161.143 36.584C160.471 36.2 159.943 35.6667 159.559 34.984C159.175 34.2907 158.983 33.4907 158.983 32.584C158.983 31.688 159.18 30.8933 159.575 30.2C159.97 29.5067 160.508 28.9733 161.191 28.6C161.874 28.2267 162.636 28.04 163.479 28.04C164.322 28.04 165.084 28.2267 165.767 28.6C166.45 28.9733 166.988 29.5067 167.383 30.2C167.778 30.8933 167.975 31.688 167.975 32.584C167.975 33.48 167.772 34.2747 167.367 34.968C166.962 35.6613 166.407 36.2 165.703 36.584C165.01 36.9573 164.242 37.144 163.399 37.144ZM163.399 35.56C163.868 35.56 164.306 35.448 164.711 35.224C165.127 35 165.463 34.664 165.719 34.216C165.975 33.768 166.103 33.224 166.103 32.584C166.103 31.944 165.98 31.4053 165.735 30.968C165.49 30.52 165.164 30.184 164.759 29.96C164.354 29.736 163.916 29.624 163.447 29.624C162.978 29.624 162.54 29.736 162.135 29.96C161.74 30.184 161.426 30.52 161.191 30.968C160.956 31.4053 160.839 31.944 160.839 32.584C160.839 33.5333 161.079 34.2693 161.559 34.792C162.05 35.304 162.663 35.56 163.399 35.56ZM174.226 28.04C174.919 28.04 175.538 28.184 176.082 28.472C176.637 28.76 177.069 29.1867 177.378 29.752C177.687 30.3173 177.842 31 177.842 31.8V37H176.034V32.072C176.034 31.2827 175.837 30.68 175.442 30.264C175.047 29.8373 174.509 29.624 173.826 29.624C173.143 29.624 172.599 29.8373 172.194 30.264C171.799 30.68 171.602 31.2827 171.602 32.072V37H169.778V28.184H171.602V29.192C171.901 28.8293 172.279 28.5467 172.738 28.344C173.207 28.1413 173.703 28.04 174.226 28.04ZM184.617 28.04C185.31 28.04 185.929 28.184 186.473 28.472C187.027 28.76 187.459 29.1867 187.769 29.752C188.078 30.3173 188.233 31 188.233 31.8V37H186.425V32.072C186.425 31.2827 186.227 30.68 185.833 30.264C185.438 29.8373 184.899 29.624 184.217 29.624C183.534 29.624 182.99 29.8373 182.585 30.264C182.19 30.68 181.993 31.2827 181.993 32.072V37H180.169V28.184H181.993V29.192C182.291 28.8293 182.67 28.5467 183.129 28.344C183.598 28.1413 184.094 28.04 184.617 28.04ZM198.639 32.376C198.639 32.7067 198.618 33.0053 198.575 33.272H191.839C191.893 33.976 192.154 34.5413 192.623 34.968C193.093 35.3947 193.669 35.608 194.351 35.608C195.333 35.608 196.026 35.1973 196.431 34.376H198.399C198.133 35.1867 197.647 35.8533 196.943 36.376C196.25 36.888 195.386 37.144 194.351 37.144C193.509 37.144 192.751 36.9573 192.079 36.584C191.418 36.2 190.895 35.6667 190.511 34.984C190.138 34.2907 189.951 33.4907 189.951 32.584C189.951 31.6773 190.133 30.8827 190.495 30.2C190.869 29.5067 191.386 28.9733 192.047 28.6C192.719 28.2267 193.487 28.04 194.351 28.04C195.183 28.04 195.925 28.2213 196.575 28.584C197.226 28.9467 197.733 29.4587 198.095 30.12C198.458 30.7707 198.639 31.5227 198.639 32.376ZM196.735 31.8C196.725 31.128 196.485 30.5893 196.015 30.184C195.546 29.7787 194.965 29.576 194.271 29.576C193.642 29.576 193.103 29.7787 192.655 30.184C192.207 30.5787 191.941 31.1173 191.855 31.8H196.735ZM199.826 32.584C199.826 31.6773 200.008 30.8827 200.37 30.2C200.744 29.5067 201.256 28.9733 201.906 28.6C202.557 28.2267 203.304 28.04 204.146 28.04C205.213 28.04 206.093 28.296 206.786 28.808C207.49 29.3093 207.965 30.0293 208.21 30.968H206.242C206.082 30.5307 205.826 30.1893 205.474 29.944C205.122 29.6987 204.68 29.576 204.146 29.576C203.4 29.576 202.802 29.8427 202.354 30.376C201.917 30.8987 201.698 31.6347 201.698 32.584C201.698 33.5333 201.917 34.2747 202.354 34.808C202.802 35.3413 203.4 35.608 204.146 35.608C205.202 35.608 205.901 35.144 206.242 34.216H208.21C207.954 35.112 207.474 35.8267 206.77 36.36C206.066 36.8827 205.192 37.144 204.146 37.144C203.304 37.144 202.557 36.9573 201.906 36.584C201.256 36.2 200.744 35.6667 200.37 34.984C200.008 34.2907 199.826 33.4907 199.826 32.584ZM212.156 29.672V34.552C212.156 34.8827 212.231 35.1227 212.38 35.272C212.54 35.4107 212.807 35.48 213.18 35.48H214.3V37H212.86C212.039 37 211.409 36.808 210.972 36.424C210.535 36.04 210.316 35.416 210.316 34.552V29.672H209.276V28.184H210.316V25.992H212.156V28.184H214.3V29.672H212.156Z" fill="white"/>
<path d="M241 32L223 43L233.5 32L223 21L241 32Z" fill="url(#paint3_linear_618_20)"/>
<defs>
<linearGradient id="paint0_linear_618_20" x1="0" y1="28" x2="356.5" y2="28" gradientUnits="userSpaceOnUse">
<stop stop-color="#256E4B"/>
<stop offset="0.165" stop-color="#1F5B3E"/>
<stop offset="0.34" stop-color="#184831"/>
<stop offset="0.505" stop-color="#123524"/>
<stop offset="0.67" stop-color="#0C2217"/>
<stop offset="0.835" stop-color="#050F0A"/>
<stop offset="1" stop-opacity="0"/>
</linearGradient>
<linearGradient id="paint1_linear_618_20" x1="180.5" y1="0" x2="180.5" y2="57" gradientUnits="userSpaceOnUse">
<stop stop-color="white"/>
<stop offset="0.598958" stop-color="#CCCCCC"/>
<stop offset="1" stop-opacity="0"/>
</linearGradient>
<linearGradient id="paint2_linear_618_20" x1="350.5" y1="71.5" x2="180" y2="-33.5" gradientUnits="userSpaceOnUse">
<stop stop-color="white"/>
<stop stop-color="white"/>
<stop offset="0.125" stop-color="#D3D3D3" stop-opacity="0.828493"/>
<stop offset="0.283316" stop-color="#8E8E8E" stop-opacity="0.558267"/>
<stop offset="0.770745" stop-opacity="0"/>
</linearGradient>
<linearGradient id="paint3_linear_618_20" x1="232" y1="21" x2="232" y2="49.5" gradientUnits="userSpaceOnUse">
<stop offset="0.0551442" stop-color="white"/>
<stop offset="1" stop-color="white" stop-opacity="0"/>
</linearGradient>
</defs>
</svg>
