<svg width="361" height="57" viewBox="0 0 361 57" fill="none" xmlns="http://www.w3.org/2000/svg">
<rect x="1" y="1" width="359" height="55" rx="27.5" stroke="url(#paint0_linear_618_20)" stroke-width="2"/>
<rect x="1" y="1" width="359" height="55" rx="27.5" stroke="url(#paint1_linear_618_20)" stroke-width="2"/>
<path d="M147.592 31.416C147.592 30.328 147.843 29.352 148.344 28.488C148.856 27.624 149.544 26.952 150.408 26.472C151.283 25.9813 152.237 25.736 153.272 25.736C154.456 25.736 155.507 26.0293 156.424 26.616C157.352 27.192 158.024 28.0133 158.44 29.08H156.248C155.96 28.4933 155.56 28.056 155.048 27.768C154.536 27.48 153.944 27.336 153.272 27.336C152.536 27.336 151.88 27.5013 151.304 27.832C150.728 28.1627 150.275 28.6373 149.944 29.256C149.624 29.8747 149.464 30.5947 149.464 31.416C149.464 32.2373 149.624 32.9573 149.944 33.576C150.275 34.1947 150.728 34.6747 151.304 35.016C151.88 35.3467 152.536 35.512 153.272 35.512C153.944 35.512 154.536 35.368 155.048 35.08C155.56 34.792 155.96 34.3547 156.248 33.768H158.44C158.024 34.8347 157.352 35.656 156.424 36.232C155.507 36.808 154.456 37.096 153.272 37.096C152.227 37.096 151.272 36.856 150.408 36.376C149.544 35.8853 148.856 35.208 148.344 34.344C147.843 33.48 147.592 32.504 147.592 31.416ZM164.399 37.144C163.567 37.144 162.815 36.9573 162.143 36.584C161.471 36.2 160.943 35.6667 160.559 34.984C160.175 34.2907 159.983 33.4907 159.983 32.584C159.983 31.688 160.18 30.8933 160.575 30.2C160.97 29.5067 161.508 28.9733 162.191 28.6C162.874 28.2267 163.636 28.04 164.479 28.04C165.322 28.04 166.084 28.2267 166.767 28.6C167.45 28.9733 167.988 29.5067 168.383 30.2C168.778 30.8933 168.975 31.688 168.975 32.584C168.975 33.48 168.772 34.2747 168.367 34.968C167.962 35.6613 167.407 36.2 166.703 36.584C166.01 36.9573 165.242 37.144 164.399 37.144ZM164.399 35.56C164.868 35.56 165.306 35.448 165.711 35.224C166.127 35 166.463 34.664 166.719 34.216C166.975 33.768 167.103 33.224 167.103 32.584C167.103 31.944 166.98 31.4053 166.735 30.968C166.49 30.52 166.164 30.184 165.759 29.96C165.354 29.736 164.916 29.624 164.447 29.624C163.978 29.624 163.54 29.736 163.135 29.96C162.74 30.184 162.426 30.52 162.191 30.968C161.956 31.4053 161.839 31.944 161.839 32.584C161.839 33.5333 162.079 34.2693 162.559 34.792C163.05 35.304 163.663 35.56 164.399 35.56ZM175.226 28.04C175.919 28.04 176.538 28.184 177.082 28.472C177.637 28.76 178.069 29.1867 178.378 29.752C178.687 30.3173 178.842 31 178.842 31.8V37H177.034V32.072C177.034 31.2827 176.837 30.68 176.442 30.264C176.047 29.8373 175.509 29.624 174.826 29.624C174.143 29.624 173.599 29.8373 173.194 30.264C172.799 30.68 172.602 31.2827 172.602 32.072V37H170.778V28.184H172.602V29.192C172.901 28.8293 173.279 28.5467 173.738 28.344C174.207 28.1413 174.703 28.04 175.226 28.04ZM184.865 29.672H183.233V37H181.393V29.672H180.353V28.184H181.393V27.56C181.393 26.5467 181.659 25.8107 182.193 25.352C182.737 24.8827 183.585 24.648 184.737 24.648V26.168C184.182 26.168 183.793 26.2747 183.569 26.488C183.345 26.6907 183.233 27.048 183.233 27.56V28.184H184.865V29.672ZM187.409 27.016C187.079 27.016 186.801 26.904 186.577 26.68C186.353 26.456 186.241 26.1787 186.241 25.848C186.241 25.5173 186.353 25.24 186.577 25.016C186.801 24.792 187.079 24.68 187.409 24.68C187.729 24.68 188.001 24.792 188.225 25.016C188.449 25.24 188.561 25.5173 188.561 25.848C188.561 26.1787 188.449 26.456 188.225 26.68C188.001 26.904 187.729 27.016 187.409 27.016ZM188.305 28.184V37H186.481V28.184H188.305ZM192.524 29.464C192.791 29.016 193.143 28.6693 193.58 28.424C194.028 28.168 194.556 28.04 195.164 28.04V29.928H194.7C193.985 29.928 193.441 30.1093 193.068 30.472C192.705 30.8347 192.524 31.464 192.524 32.36V37H190.7V28.184H192.524V29.464ZM207.513 28.04C208.206 28.04 208.825 28.184 209.369 28.472C209.923 28.76 210.355 29.1867 210.665 29.752C210.985 30.3173 211.145 31 211.145 31.8V37H209.337V32.072C209.337 31.2827 209.139 30.68 208.745 30.264C208.35 29.8373 207.811 29.624 207.129 29.624C206.446 29.624 205.902 29.8373 205.497 30.264C205.102 30.68 204.905 31.2827 204.905 32.072V37H203.097V32.072C203.097 31.2827 202.899 30.68 202.505 30.264C202.11 29.8373 201.571 29.624 200.889 29.624C200.206 29.624 199.662 29.8373 199.257 30.264C198.862 30.68 198.665 31.2827 198.665 32.072V37H196.841V28.184H198.665V29.192C198.963 28.8293 199.342 28.5467 199.801 28.344C200.259 28.1413 200.75 28.04 201.273 28.04C201.977 28.04 202.606 28.1893 203.161 28.488C203.715 28.7867 204.142 29.2187 204.441 29.784C204.707 29.2507 205.123 28.8293 205.689 28.52C206.254 28.2 206.862 28.04 207.513 28.04Z" fill="white"/>
<path d="M237 32L219 43L229.5 32L219 21L237 32Z" fill="url(#paint2_linear_618_20)"/>
<defs>
<linearGradient id="paint0_linear_618_20" x1="180.5" y1="0" x2="180.5" y2="57" gradientUnits="userSpaceOnUse">
<stop stop-color="white"/>
<stop offset="0.598958" stop-color="#CCCCCC"/>
<stop offset="1" stop-opacity="0"/>
</linearGradient>
<linearGradient id="paint1_linear_618_20" x1="350.5" y1="71.5" x2="180" y2="-33.5" gradientUnits="userSpaceOnUse">
<stop stop-color="white"/>
<stop stop-color="white"/>
<stop offset="0.125" stop-color="#D3D3D3" stop-opacity="0.828493"/>
<stop offset="0.283316" stop-color="#8E8E8E" stop-opacity="0.558267"/>
<stop offset="0.770745" stop-opacity="0"/>
</linearGradient>
<linearGradient id="paint2_linear_618_20" x1="228" y1="21" x2="228" y2="49.5" gradientUnits="userSpaceOnUse">
<stop offset="0.0551442" stop-color="white"/>
<stop offset="1" stop-color="white" stop-opacity="0"/>
</linearGradient>
</defs>
</svg>
