<svg width="361" height="57" viewBox="0 0 361 57" fill="none" xmlns="http://www.w3.org/2000/svg">
<rect x="1" y="1" width="359" height="55" rx="27.5" fill="url(#paint0_linear_618_21)" stroke="url(#paint1_linear_618_21)" stroke-width="2"/>
<path d="M114.15 23.15C113.57 21.93 112.73 20.99 111.63 20.33C110.53 19.65 109.25 19.31 107.79 19.31C106.33 19.31 105.01 19.65 103.83 20.33C102.67 20.99 101.75 21.95 101.07 23.21C100.41 24.45 100.08 25.89 100.08 27.53C100.08 29.17 100.41 30.61 101.07 31.85C101.75 33.09 102.67 34.05 103.83 34.73C105.01 35.39 106.33 35.72 107.79 35.72C109.83 35.72 111.51 35.11 112.83 33.89C114.15 32.67 114.92 31.02 115.14 28.94H106.8V26.72H118.05V28.82C117.89 30.54 117.35 32.12 116.43 33.56C115.51 34.98 114.3 36.11 112.8 36.95C111.3 37.77 109.63 38.18 107.79 38.18C105.85 38.18 104.08 37.73 102.48 36.83C100.88 35.91 99.61 34.64 98.67 33.02C97.75 31.4 97.29 29.57 97.29 27.53C97.29 25.49 97.75 23.66 98.67 22.04C99.61 20.4 100.88 19.13 102.48 18.23C104.08 17.31 105.85 16.85 107.79 16.85C110.01 16.85 111.97 17.4 113.67 18.5C115.39 19.6 116.64 21.15 117.42 23.15H114.15ZM136.66 29.15C136.66 29.67 136.63 30.22 136.57 30.8H123.43C123.53 32.42 124.08 33.69 125.08 34.61C126.1 35.51 127.33 35.96 128.77 35.96C129.95 35.96 130.93 35.69 131.71 35.15C132.51 34.59 133.07 33.85 133.39 32.93H136.33C135.89 34.51 135.01 35.8 133.69 36.8C132.37 37.78 130.73 38.27 128.77 38.27C127.21 38.27 125.81 37.92 124.57 37.22C123.35 36.52 122.39 35.53 121.69 34.25C120.99 32.95 120.64 31.45 120.64 29.75C120.64 28.05 120.98 26.56 121.66 25.28C122.34 24 123.29 23.02 124.51 22.34C125.75 21.64 127.17 21.29 128.77 21.29C130.33 21.29 131.71 21.63 132.91 22.31C134.11 22.99 135.03 23.93 135.67 25.13C136.33 26.31 136.66 27.65 136.66 29.15ZM133.84 28.58C133.84 27.54 133.61 26.65 133.15 25.91C132.69 25.15 132.06 24.58 131.26 24.2C130.48 23.8 129.61 23.6 128.65 23.6C127.27 23.6 126.09 24.04 125.11 24.92C124.15 25.8 123.6 27.02 123.46 28.58H133.84ZM143.593 23.81V33.5C143.593 34.3 143.763 34.87 144.103 35.21C144.443 35.53 145.033 35.69 145.873 35.69H147.883V38H145.423C143.903 38 142.763 37.65 142.003 36.95C141.243 36.25 140.863 35.1 140.863 33.5V23.81H138.733V21.56H140.863V17.42H143.593V21.56H147.883V23.81H143.593ZM165.009 38.27C163.749 38.27 162.619 38.06 161.619 37.64C160.619 37.2 159.829 36.6 159.249 35.84C158.669 35.06 158.349 34.17 158.289 33.17H161.109C161.189 33.99 161.569 34.66 162.249 35.18C162.949 35.7 163.859 35.96 164.979 35.96C166.019 35.96 166.839 35.73 167.439 35.27C168.039 34.81 168.339 34.23 168.339 33.53C168.339 32.81 168.019 32.28 167.379 31.94C166.739 31.58 165.749 31.23 164.409 30.89C163.189 30.57 162.189 30.25 161.409 29.93C160.649 29.59 159.989 29.1 159.429 28.46C158.889 27.8 158.619 26.94 158.619 25.88C158.619 25.04 158.869 24.27 159.369 23.57C159.869 22.87 160.579 22.32 161.499 21.92C162.419 21.5 163.469 21.29 164.649 21.29C166.469 21.29 167.939 21.75 169.059 22.67C170.179 23.59 170.779 24.85 170.859 26.45H168.129C168.069 25.59 167.719 24.9 167.079 24.38C166.459 23.86 165.619 23.6 164.559 23.6C163.579 23.6 162.799 23.81 162.219 24.23C161.639 24.65 161.349 25.2 161.349 25.88C161.349 26.42 161.519 26.87 161.859 27.23C162.219 27.57 162.659 27.85 163.179 28.07C163.719 28.27 164.459 28.5 165.399 28.76C166.579 29.08 167.539 29.4 168.279 29.72C169.019 30.02 169.649 30.48 170.169 31.1C170.709 31.72 170.989 32.53 171.009 33.53C171.009 34.43 170.759 35.24 170.259 35.96C169.759 36.68 169.049 37.25 168.129 37.67C167.229 38.07 166.189 38.27 165.009 38.27ZM178.193 23.81V33.5C178.193 34.3 178.363 34.87 178.703 35.21C179.043 35.53 179.633 35.69 180.473 35.69H182.483V38H180.023C178.503 38 177.363 37.65 176.603 36.95C175.843 36.25 175.463 35.1 175.463 33.5V23.81H173.333V21.56H175.463V17.42H178.193V21.56H182.483V23.81H178.193ZM184.77 29.72C184.77 28.04 185.11 26.57 185.79 25.31C186.47 24.03 187.4 23.04 188.58 22.34C189.78 21.64 191.11 21.29 192.57 21.29C194.01 21.29 195.26 21.6 196.32 22.22C197.38 22.84 198.17 23.62 198.69 24.56V21.56H201.45V38H198.69V34.94C198.15 35.9 197.34 36.7 196.26 37.34C195.2 37.96 193.96 38.27 192.54 38.27C191.08 38.27 189.76 37.91 188.58 37.19C187.4 36.47 186.47 35.46 185.79 34.16C185.11 32.86 184.77 31.38 184.77 29.72ZM198.69 29.75C198.69 28.51 198.44 27.43 197.94 26.51C197.44 25.59 196.76 24.89 195.9 24.41C195.06 23.91 194.13 23.66 193.11 23.66C192.09 23.66 191.16 23.9 190.32 24.38C189.48 24.86 188.81 25.56 188.31 26.48C187.81 27.4 187.56 28.48 187.56 29.72C187.56 30.98 187.81 32.08 188.31 33.02C188.81 33.94 189.48 34.65 190.32 35.15C191.16 35.63 192.09 35.87 193.11 35.87C194.13 35.87 195.06 35.63 195.9 35.15C196.76 34.65 197.44 33.94 197.94 33.02C198.44 32.08 198.69 30.99 198.69 29.75ZM208.794 24.23C209.274 23.29 209.954 22.56 210.834 22.04C211.734 21.52 212.824 21.26 214.104 21.26V24.08H213.384C210.324 24.08 208.794 25.74 208.794 29.06V38H206.064V21.56H208.794V24.23ZM220.585 23.81V33.5C220.585 34.3 220.755 34.87 221.095 35.21C221.435 35.53 222.025 35.69 222.865 35.69H224.875V38H222.415C220.895 38 219.755 37.65 218.995 36.95C218.235 36.25 217.855 35.1 217.855 33.5V23.81H215.725V21.56H217.855V17.42H220.585V21.56H224.875V23.81H220.585ZM243.183 29.15C243.183 29.67 243.153 30.22 243.093 30.8H229.953C230.053 32.42 230.603 33.69 231.603 34.61C232.623 35.51 233.853 35.96 235.293 35.96C236.473 35.96 237.453 35.69 238.233 35.15C239.033 34.59 239.593 33.85 239.913 32.93H242.853C242.413 34.51 241.533 35.8 240.213 36.8C238.893 37.78 237.253 38.27 235.293 38.27C233.733 38.27 232.333 37.92 231.093 37.22C229.873 36.52 228.913 35.53 228.213 34.25C227.513 32.95 227.163 31.45 227.163 29.75C227.163 28.05 227.503 26.56 228.183 25.28C228.863 24 229.813 23.02 231.033 22.34C232.273 21.64 233.693 21.29 235.293 21.29C236.853 21.29 238.233 21.63 239.433 22.31C240.633 22.99 241.553 23.93 242.193 25.13C242.853 26.31 243.183 27.65 243.183 29.15ZM240.363 28.58C240.363 27.54 240.133 26.65 239.673 25.91C239.213 25.15 238.583 24.58 237.783 24.2C237.003 23.8 236.133 23.6 235.173 23.6C233.793 23.6 232.613 24.04 231.633 24.92C230.673 25.8 230.123 27.02 229.983 28.58H240.363ZM245.767 29.72C245.767 28.04 246.107 26.57 246.787 25.31C247.467 24.03 248.397 23.04 249.577 22.34C250.777 21.64 252.117 21.29 253.597 21.29C254.877 21.29 256.067 21.59 257.167 22.19C258.267 22.77 259.107 23.54 259.687 24.5V15.8H262.447V38H259.687V34.91C259.147 35.89 258.347 36.7 257.287 37.34C256.227 37.96 254.987 38.27 253.567 38.27C252.107 38.27 250.777 37.91 249.577 37.19C248.397 36.47 247.467 35.46 246.787 34.16C246.107 32.86 245.767 31.38 245.767 29.72ZM259.687 29.75C259.687 28.51 259.437 27.43 258.937 26.51C258.437 25.59 257.757 24.89 256.897 24.41C256.057 23.91 255.127 23.66 254.107 23.66C253.087 23.66 252.157 23.9 251.317 24.38C250.477 24.86 249.807 25.56 249.307 26.48C248.807 27.4 248.557 28.48 248.557 29.72C248.557 30.98 248.807 32.08 249.307 33.02C249.807 33.94 250.477 34.65 251.317 35.15C252.157 35.63 253.087 35.87 254.107 35.87C255.127 35.87 256.057 35.63 256.897 35.15C257.757 34.65 258.437 33.94 258.937 33.02C259.437 32.08 259.687 30.99 259.687 29.75Z" fill="url(#paint2_linear_618_21)"/>
<defs>
<linearGradient id="paint0_linear_618_21" x1="130" y1="-203.5" x2="130.5" y2="57" gradientUnits="userSpaceOnUse">
<stop stop-color="#E7E7E7"/>
<stop offset="0.0606061" stop-color="#DED0C8"/>
<stop offset="0.0909091" stop-color="#DACCC4"/>
<stop offset="0.121212" stop-color="#C2B6AE"/>
<stop offset="0.151515" stop-color="#BDB0A9"/>
<stop offset="0.151615" stop-color="#DED0C8"/>
<stop offset="0.173899" stop-color="#E3D5CD"/>
<stop offset="0.177551"/>
<stop offset="0.181818" stop-color="#AFA39B"/>
<stop offset="0.212121" stop-color="#A1958E"/>
<stop offset="0.242424"/>
<stop offset="0.260232"/>
<stop offset="0.272727" stop-color="#A0948D"/>
<stop offset="0.403267"/>
<stop offset="0.9375" stop-color="white" stop-opacity="0.33"/>
</linearGradient>
<linearGradient id="paint1_linear_618_21" x1="180.5" y1="0" x2="180.5" y2="57" gradientUnits="userSpaceOnUse">
<stop/>
<stop offset="0.598958"/>
<stop offset="1" stop-color="white" stop-opacity="0"/>
</linearGradient>
<linearGradient id="paint2_linear_618_21" x1="180" y1="21" x2="180" y2="52" gradientUnits="userSpaceOnUse">
<stop/>
<stop offset="0.923862" stop-opacity="0"/>
</linearGradient>
</defs>
</svg>
