<svg width="387" height="83" viewBox="0 0 387 83" fill="none" xmlns="http://www.w3.org/2000/svg">
<rect x="1" y="1" width="359" height="55" rx="27.5" stroke="url(#paint0_linear_618_20)" stroke-width="2"/>
<rect x="27" y="27" width="359" height="55" rx="27.5" fill="url(#paint1_linear_618_20)" stroke="url(#paint2_linear_618_20)" stroke-width="2"/>
<rect x="27" y="27" width="359" height="55" rx="27.5" stroke="url(#paint3_linear_618_20)" stroke-width="2"/>
<path d="M170.248 55.08C169.96 54.5253 169.56 54.1093 169.048 53.832C168.536 53.544 167.944 53.4 167.272 53.4C166.536 53.4 165.88 53.5653 165.304 53.896C164.728 54.2267 164.275 54.696 163.944 55.304C163.624 55.912 163.464 56.616 163.464 57.416C163.464 58.216 163.624 58.9253 163.944 59.544C164.275 60.152 164.728 60.6213 165.304 60.952C165.88 61.2827 166.536 61.448 167.272 61.448C168.264 61.448 169.069 61.1707 169.688 60.616C170.307 60.0613 170.685 59.3093 170.824 58.36H166.648V56.904H172.776V58.328C172.659 59.192 172.349 59.9867 171.848 60.712C171.357 61.4373 170.712 62.0187 169.912 62.456C169.123 62.8827 168.243 63.096 167.272 63.096C166.227 63.096 165.272 62.856 164.408 62.376C163.544 61.8853 162.856 61.208 162.344 60.344C161.843 59.48 161.592 58.504 161.592 57.416C161.592 56.328 161.843 55.352 162.344 54.488C162.856 53.624 163.544 52.952 164.408 52.472C165.283 51.9813 166.237 51.736 167.272 51.736C168.456 51.736 169.507 52.0293 170.424 52.616C171.352 53.192 172.024 54.0133 172.44 55.08H170.248ZM182.655 58.376C182.655 58.7067 182.634 59.0053 182.591 59.272H175.855C175.908 59.976 176.17 60.5413 176.639 60.968C177.108 61.3947 177.684 61.608 178.367 61.608C179.348 61.608 180.042 61.1973 180.447 60.376H182.415C182.148 61.1867 181.663 61.8533 180.959 62.376C180.266 62.888 179.402 63.144 178.367 63.144C177.524 63.144 176.767 62.9573 176.095 62.584C175.434 62.2 174.911 61.6667 174.527 60.984C174.154 60.2907 173.967 59.4907 173.967 58.584C173.967 57.6773 174.148 56.8827 174.511 56.2C174.884 55.5067 175.402 54.9733 176.063 54.6C176.735 54.2267 177.503 54.04 178.367 54.04C179.199 54.04 179.94 54.2213 180.591 54.584C181.242 54.9467 181.748 55.4587 182.111 56.12C182.474 56.7707 182.655 57.5227 182.655 58.376ZM180.751 57.8C180.74 57.128 180.5 56.5893 180.031 56.184C179.562 55.7787 178.98 55.576 178.287 55.576C177.658 55.576 177.119 55.7787 176.671 56.184C176.223 56.5787 175.956 57.1173 175.871 57.8H180.751ZM186.578 55.672V60.552C186.578 60.8827 186.653 61.1227 186.802 61.272C186.962 61.4107 187.229 61.48 187.602 61.48H188.722V63H187.282C186.461 63 185.831 62.808 185.394 62.424C184.957 62.04 184.738 61.416 184.738 60.552V55.672H183.698V54.184H184.738V51.992H186.578V54.184H188.722V55.672H186.578ZM197.759 63.144C197.066 63.144 196.442 63.0213 195.887 62.776C195.343 62.52 194.911 62.1787 194.591 61.752C194.271 61.3147 194.101 60.8293 194.079 60.296H195.967C195.999 60.6693 196.175 60.984 196.495 61.24C196.826 61.4853 197.237 61.608 197.727 61.608C198.239 61.608 198.634 61.512 198.911 61.32C199.199 61.1173 199.343 60.8613 199.343 60.552C199.343 60.2213 199.183 59.976 198.863 59.816C198.554 59.656 198.058 59.48 197.375 59.288C196.714 59.1067 196.175 58.9307 195.759 58.76C195.343 58.5893 194.981 58.328 194.671 57.976C194.373 57.624 194.223 57.16 194.223 56.584C194.223 56.1147 194.362 55.688 194.639 55.304C194.917 54.9093 195.311 54.6 195.823 54.376C196.346 54.152 196.943 54.04 197.615 54.04C198.618 54.04 199.423 54.296 200.031 54.808C200.65 55.3093 200.981 55.9973 201.023 56.872H199.199C199.167 56.4773 199.007 56.1627 198.719 55.928C198.431 55.6933 198.042 55.576 197.551 55.576C197.071 55.576 196.703 55.6667 196.447 55.848C196.191 56.0293 196.063 56.2693 196.063 56.568C196.063 56.8027 196.149 57 196.319 57.16C196.49 57.32 196.698 57.448 196.943 57.544C197.189 57.6293 197.551 57.7413 198.031 57.88C198.671 58.0507 199.194 58.2267 199.599 58.408C200.015 58.5787 200.373 58.8347 200.671 59.176C200.97 59.5173 201.125 59.9707 201.135 60.536C201.135 61.0373 200.997 61.4853 200.719 61.88C200.442 62.2747 200.047 62.584 199.535 62.808C199.034 63.032 198.442 63.144 197.759 63.144ZM205.234 55.672V60.552C205.234 60.8827 205.309 61.1227 205.458 61.272C205.618 61.4107 205.885 61.48 206.258 61.48H207.378V63H205.938C205.117 63 204.488 62.808 204.05 62.424C203.613 62.04 203.394 61.416 203.394 60.552V55.672H202.354V54.184H203.394V51.992H205.234V54.184H207.378V55.672H205.234ZM208.451 58.552C208.451 57.6667 208.633 56.8827 208.995 56.2C209.369 55.5173 209.87 54.9893 210.499 54.616C211.139 54.232 211.843 54.04 212.611 54.04C213.305 54.04 213.907 54.1787 214.419 54.456C214.942 54.7227 215.358 55.0587 215.667 55.464V54.184H217.507V63H215.667V61.688C215.358 62.104 214.937 62.4507 214.403 62.728C213.87 63.0053 213.262 63.144 212.579 63.144C211.822 63.144 211.129 62.952 210.499 62.568C209.87 62.1733 209.369 61.6293 208.995 60.936C208.633 60.232 208.451 59.4373 208.451 58.552ZM215.667 58.584C215.667 57.976 215.539 57.448 215.283 57C215.038 56.552 214.713 56.2107 214.307 55.976C213.902 55.7413 213.465 55.624 212.995 55.624C212.526 55.624 212.089 55.7413 211.683 55.976C211.278 56.2 210.947 56.536 210.691 56.984C210.446 57.4213 210.323 57.944 210.323 58.552C210.323 59.16 210.446 59.6933 210.691 60.152C210.947 60.6107 211.278 60.9627 211.683 61.208C212.099 61.4427 212.537 61.56 212.995 61.56C213.465 61.56 213.902 61.4427 214.307 61.208C214.713 60.9733 215.038 60.632 215.283 60.184C215.539 59.7253 215.667 59.192 215.667 58.584ZM221.727 55.464C221.994 55.016 222.346 54.6693 222.783 54.424C223.231 54.168 223.759 54.04 224.367 54.04V55.928H223.903C223.188 55.928 222.644 56.1093 222.271 56.472C221.908 56.8347 221.727 57.464 221.727 58.36V63H219.903V54.184H221.727V55.464ZM228.172 55.672V60.552C228.172 60.8827 228.246 61.1227 228.396 61.272C228.556 61.4107 228.822 61.48 229.196 61.48H230.316V63H228.876C228.054 63 227.425 62.808 226.988 62.424C226.55 62.04 226.332 61.416 226.332 60.552V55.672H225.292V54.184H226.332V51.992H228.172V54.184H230.316V55.672H228.172ZM240.077 58.376C240.077 58.7067 240.056 59.0053 240.013 59.272H233.277C233.33 59.976 233.592 60.5413 234.061 60.968C234.53 61.3947 235.106 61.608 235.789 61.608C236.77 61.608 237.464 61.1973 237.869 60.376H239.837C239.57 61.1867 239.085 61.8533 238.381 62.376C237.688 62.888 236.824 63.144 235.789 63.144C234.946 63.144 234.189 62.9573 233.517 62.584C232.856 62.2 232.333 61.6667 231.949 60.984C231.576 60.2907 231.389 59.4907 231.389 58.584C231.389 57.6773 231.57 56.8827 231.933 56.2C232.306 55.5067 232.824 54.9733 233.485 54.6C234.157 54.2267 234.925 54.04 235.789 54.04C236.621 54.04 237.362 54.2213 238.013 54.584C238.664 54.9467 239.17 55.4587 239.533 56.12C239.896 56.7707 240.077 57.5227 240.077 58.376ZM238.173 57.8C238.162 57.128 237.922 56.5893 237.453 56.184C236.984 55.7787 236.402 55.576 235.709 55.576C235.08 55.576 234.541 55.7787 234.093 56.184C233.645 56.5787 233.378 57.1173 233.293 57.8H238.173ZM241.264 58.552C241.264 57.6667 241.445 56.8827 241.808 56.2C242.181 55.5173 242.683 54.9893 243.312 54.616C243.952 54.232 244.661 54.04 245.44 54.04C246.016 54.04 246.581 54.168 247.136 54.424C247.701 54.6693 248.149 55 248.48 55.416V51.16H250.32V63H248.48V61.672C248.181 62.0987 247.765 62.4507 247.232 62.728C246.709 63.0053 246.107 63.144 245.424 63.144C244.656 63.144 243.952 62.952 243.312 62.568C242.683 62.1733 242.181 61.6293 241.808 60.936C241.445 60.232 241.264 59.4373 241.264 58.552ZM248.48 58.584C248.48 57.976 248.352 57.448 248.096 57C247.851 56.552 247.525 56.2107 247.12 55.976C246.715 55.7413 246.277 55.624 245.808 55.624C245.339 55.624 244.901 55.7413 244.496 55.976C244.091 56.2 243.76 56.536 243.504 56.984C243.259 57.4213 243.136 57.944 243.136 58.552C243.136 59.16 243.259 59.6933 243.504 60.152C243.76 60.6107 244.091 60.9627 244.496 61.208C244.912 61.4427 245.349 61.56 245.808 61.56C246.277 61.56 246.715 61.4427 247.12 61.208C247.525 60.9733 247.851 60.632 248.096 60.184C248.352 59.7253 248.48 59.192 248.48 58.584Z" fill="white"/>
<path d="M278 58L260 69L270.5 58L260 47L278 58Z" fill="url(#paint4_linear_618_20)"/>
<defs>
<linearGradient id="paint0_linear_618_20" x1="89.5" y1="1.10975e-06" x2="97" y2="57" gradientUnits="userSpaceOnUse">
<stop stop-color="white"/>
<stop stop-color="#CCCCCC"/>
<stop offset="0.39876" stop-opacity="0"/>
</linearGradient>
<linearGradient id="paint1_linear_618_20" x1="26" y1="54" x2="382.5" y2="54" gradientUnits="userSpaceOnUse">
<stop stop-color="#256E4B"/>
<stop offset="0.165" stop-color="#1F5B3E"/>
<stop offset="0.34" stop-color="#184831"/>
<stop offset="0.505" stop-color="#123524"/>
<stop offset="0.67" stop-color="#0C2217"/>
<stop offset="0.835" stop-color="#050F0A"/>
<stop offset="1" stop-opacity="0"/>
</linearGradient>
<linearGradient id="paint2_linear_618_20" x1="206.5" y1="26" x2="206.5" y2="83" gradientUnits="userSpaceOnUse">
<stop stop-color="white"/>
<stop offset="0.598958" stop-color="#CCCCCC"/>
<stop offset="1" stop-opacity="0"/>
</linearGradient>
<linearGradient id="paint3_linear_618_20" x1="376.5" y1="97.5" x2="206" y2="-7.49997" gradientUnits="userSpaceOnUse">
<stop stop-color="white"/>
<stop stop-color="white"/>
<stop offset="0.125" stop-color="#D3D3D3" stop-opacity="0.828493"/>
<stop offset="0.283316" stop-color="#8E8E8E" stop-opacity="0.558267"/>
<stop offset="0.770745" stop-opacity="0"/>
</linearGradient>
<linearGradient id="paint4_linear_618_20" x1="269" y1="47" x2="269" y2="75.5" gradientUnits="userSpaceOnUse">
<stop offset="0.0551442" stop-color="white"/>
<stop offset="1" stop-color="white" stop-opacity="0"/>
</linearGradient>
</defs>
</svg>
