<svg width="361" height="57" viewBox="0 0 361 57" fill="none" xmlns="http://www.w3.org/2000/svg">
<rect x="1" y="1" width="359" height="55" rx="27.5" fill="url(#paint0_linear_618_20)" stroke="url(#paint1_linear_618_20)" stroke-width="2"/>
<rect x="1" y="1" width="359" height="55" rx="27.5" stroke="url(#paint2_linear_618_20)" stroke-width="2"/>
<path d="M162.024 35.528H165.784V37H160.2V25.88H162.024V35.528ZM171.133 37.144C170.301 37.144 169.549 36.9573 168.877 36.584C168.205 36.2 167.677 35.6667 167.293 34.984C166.909 34.2907 166.717 33.4907 166.717 32.584C166.717 31.688 166.915 30.8933 167.309 30.2C167.704 29.5067 168.243 28.9733 168.925 28.6C169.608 28.2267 170.371 28.04 171.213 28.04C172.056 28.04 172.819 28.2267 173.501 28.6C174.184 28.9733 174.723 29.5067 175.117 30.2C175.512 30.8933 175.709 31.688 175.709 32.584C175.709 33.48 175.507 34.2747 175.101 34.968C174.696 35.6613 174.141 36.2 173.437 36.584C172.744 36.9573 171.976 37.144 171.133 37.144ZM171.133 35.56C171.603 35.56 172.04 35.448 172.445 35.224C172.861 35 173.197 34.664 173.453 34.216C173.709 33.768 173.837 33.224 173.837 32.584C173.837 31.944 173.715 31.4053 173.469 30.968C173.224 30.52 172.899 30.184 172.493 29.96C172.088 29.736 171.651 29.624 171.181 29.624C170.712 29.624 170.275 29.736 169.869 29.96C169.475 30.184 169.16 30.52 168.925 30.968C168.691 31.4053 168.573 31.944 168.573 32.584C168.573 33.5333 168.813 34.2693 169.293 34.792C169.784 35.304 170.397 35.56 171.133 35.56ZM181.065 28.04C181.747 28.04 182.35 28.1787 182.873 28.456C183.406 28.7227 183.822 29.0587 184.121 29.464V28.184H185.961V37.144C185.961 37.9547 185.79 38.6747 185.449 39.304C185.107 39.944 184.611 40.4453 183.961 40.808C183.321 41.1707 182.553 41.352 181.657 41.352C180.462 41.352 179.47 41.0693 178.681 40.504C177.891 39.9493 177.443 39.192 177.337 38.232H179.145C179.283 38.6907 179.577 39.0587 180.025 39.336C180.483 39.624 181.027 39.768 181.657 39.768C182.393 39.768 182.985 39.544 183.433 39.096C183.891 38.648 184.121 37.9973 184.121 37.144V35.672C183.811 36.088 183.39 36.44 182.857 36.728C182.334 37.0053 181.737 37.144 181.065 37.144C180.297 37.144 179.593 36.952 178.953 36.568C178.323 36.1733 177.822 35.6293 177.449 34.936C177.086 34.232 176.905 33.4373 176.905 32.552C176.905 31.6667 177.086 30.8827 177.449 30.2C177.822 29.5173 178.323 28.9893 178.953 28.616C179.593 28.232 180.297 28.04 181.065 28.04ZM184.121 32.584C184.121 31.976 183.993 31.448 183.737 31C183.491 30.552 183.166 30.2107 182.761 29.976C182.355 29.7413 181.918 29.624 181.449 29.624C180.979 29.624 180.542 29.7413 180.137 29.976C179.731 30.2 179.401 30.536 179.145 30.984C178.899 31.4213 178.777 31.944 178.777 32.552C178.777 33.16 178.899 33.6933 179.145 34.152C179.401 34.6107 179.731 34.9627 180.137 35.208C180.553 35.4427 180.99 35.56 181.449 35.56C181.918 35.56 182.355 35.4427 182.761 35.208C183.166 34.9733 183.491 34.632 183.737 34.184C183.993 33.7253 184.121 33.192 184.121 32.584ZM189.284 27.016C188.954 27.016 188.676 26.904 188.452 26.68C188.228 26.456 188.116 26.1787 188.116 25.848C188.116 25.5173 188.228 25.24 188.452 25.016C188.676 24.792 188.954 24.68 189.284 24.68C189.604 24.68 189.876 24.792 190.1 25.016C190.324 25.24 190.436 25.5173 190.436 25.848C190.436 26.1787 190.324 26.456 190.1 26.68C189.876 26.904 189.604 27.016 189.284 27.016ZM190.18 28.184V37H188.356V28.184H190.18ZM197.023 28.04C197.716 28.04 198.335 28.184 198.879 28.472C199.434 28.76 199.866 29.1867 200.175 29.752C200.484 30.3173 200.639 31 200.639 31.8V37H198.831V32.072C198.831 31.2827 198.634 30.68 198.239 30.264C197.844 29.8373 197.306 29.624 196.623 29.624C195.94 29.624 195.396 29.8373 194.991 30.264C194.596 30.68 194.399 31.2827 194.399 32.072V37H192.575V28.184H194.399V29.192C194.698 28.8293 195.076 28.5467 195.535 28.344C196.004 28.1413 196.5 28.04 197.023 28.04Z" fill="white"/>
<path d="M228 32L210 43L220.5 32L210 21L228 32Z" fill="url(#paint3_linear_618_20)"/>
<defs>
<linearGradient id="paint0_linear_618_20" x1="0" y1="28" x2="356.5" y2="28" gradientUnits="userSpaceOnUse">
<stop stop-color="#256E4B"/>
<stop offset="0.165" stop-color="#1F5B3E"/>
<stop offset="0.34" stop-color="#184831"/>
<stop offset="0.505" stop-color="#123524"/>
<stop offset="0.67" stop-color="#0C2217"/>
<stop offset="0.835" stop-color="#050F0A"/>
<stop offset="1" stop-opacity="0"/>
</linearGradient>
<linearGradient id="paint1_linear_618_20" x1="180.5" y1="0" x2="180.5" y2="57" gradientUnits="userSpaceOnUse">
<stop stop-color="white"/>
<stop offset="0.598958" stop-color="#CCCCCC"/>
<stop offset="1" stop-opacity="0"/>
</linearGradient>
<linearGradient id="paint2_linear_618_20" x1="350.5" y1="71.5" x2="180" y2="-33.5" gradientUnits="userSpaceOnUse">
<stop stop-color="white"/>
<stop stop-color="white"/>
<stop offset="0.125" stop-color="#D3D3D3" stop-opacity="0.828493"/>
<stop offset="0.283316" stop-color="#8E8E8E" stop-opacity="0.558267"/>
<stop offset="0.770745" stop-opacity="0"/>
</linearGradient>
<linearGradient id="paint3_linear_618_20" x1="219" y1="21" x2="219" y2="49.5" gradientUnits="userSpaceOnUse">
<stop offset="0.0551442" stop-color="white"/>
<stop offset="1" stop-color="white" stop-opacity="0"/>
</linearGradient>
</defs>
</svg>
