<svg width="20" height="12" viewBox="0 0 20 12" fill="none" xmlns="http://www.w3.org/2000/svg">
<path d="M11.4072 1.13691C10.7584 0.955838 10.8893 0 11.5629 0H18.6956C19.416 0 20 0.583976 20 1.30435V1.30435C20 2.02472 19.416 2.6087 18.6956 2.6087H7.33331L11.3006 2.27174C11.9436 2.21712 12.0288 1.31038 11.4072 1.13691V1.13691Z" fill="white"/>
<path d="M0 4.69565H18.6957C19.416 4.69565 20 5.27962 20 6V6C20 6.72037 19.416 7.30434 18.6957 7.30434H0.652173C0.291988 7.30434 0 7.01236 0 6.65217V6.65217C0 6.29199 0.291987 6 0.652172 6L20 6L0 4.69565Z" fill="white"/>
<path d="M0 10.6956C0 9.97527 0.583976 9.3913 1.30435 9.3913L10 9.3913H20L0 10.6956L19.3478 10.6956C19.708 10.6956 20 10.9876 20 11.3478V11.3478C20 11.708 19.708 12 19.3478 12L10 12H1.30435C0.583977 12 0 11.416 0 10.6956V10.6956Z" fill="white"/>
</svg>
