<svg width="361" height="57" viewBox="0 0 361 57" fill="none" xmlns="http://www.w3.org/2000/svg">
<rect x="1" y="1" width="359" height="55" rx="27.5" stroke="url(#paint0_linear_618_20)" stroke-width="2"/>
<rect x="1" y="1" width="359" height="55" rx="27.5" stroke="url(#paint1_linear_618_20)" stroke-width="2"/>
<path d="M154.864 37.112C154.117 37.112 153.445 36.984 152.848 36.728C152.251 36.4613 151.781 36.088 151.44 35.608C151.099 35.128 150.928 34.568 150.928 33.928H152.88C152.923 34.408 153.109 34.8027 153.44 35.112C153.781 35.4213 154.256 35.576 154.864 35.576C155.493 35.576 155.984 35.4267 156.336 35.128C156.688 34.8187 156.864 34.424 156.864 33.944C156.864 33.5707 156.752 33.2667 156.528 33.032C156.315 32.7973 156.043 32.616 155.712 32.488C155.392 32.36 154.944 32.2213 154.368 32.072C153.643 31.88 153.051 31.688 152.592 31.496C152.144 31.2933 151.76 30.984 151.44 30.568C151.12 30.152 150.96 29.5973 150.96 28.904C150.96 28.264 151.12 27.704 151.44 27.224C151.76 26.744 152.208 26.376 152.784 26.12C153.36 25.864 154.027 25.736 154.784 25.736C155.861 25.736 156.741 26.008 157.424 26.552C158.117 27.0853 158.501 27.8213 158.576 28.76H156.56C156.528 28.3547 156.336 28.008 155.984 27.72C155.632 27.432 155.168 27.288 154.592 27.288C154.069 27.288 153.643 27.4213 153.312 27.688C152.981 27.9547 152.816 28.3387 152.816 28.84C152.816 29.1813 152.917 29.464 153.12 29.688C153.333 29.9013 153.6 30.072 153.92 30.2C154.24 30.328 154.677 30.4667 155.232 30.616C155.968 30.8187 156.565 31.0213 157.024 31.224C157.493 31.4267 157.888 31.7413 158.208 32.168C158.539 32.584 158.704 33.144 158.704 33.848C158.704 34.4133 158.549 34.9467 158.24 35.448C157.941 35.9493 157.499 36.3547 156.912 36.664C156.336 36.9627 155.653 37.112 154.864 37.112ZM161.784 27.016C161.454 27.016 161.176 26.904 160.952 26.68C160.728 26.456 160.616 26.1787 160.616 25.848C160.616 25.5173 160.728 25.24 160.952 25.016C161.176 24.792 161.454 24.68 161.784 24.68C162.104 24.68 162.376 24.792 162.6 25.016C162.824 25.24 162.936 25.5173 162.936 25.848C162.936 26.1787 162.824 26.456 162.6 26.68C162.376 26.904 162.104 27.016 161.784 27.016ZM162.68 28.184V37H160.856V28.184H162.68ZM168.627 28.04C169.31 28.04 169.912 28.1787 170.435 28.456C170.968 28.7227 171.384 29.0587 171.683 29.464V28.184H173.523V37.144C173.523 37.9547 173.352 38.6747 173.011 39.304C172.67 39.944 172.174 40.4453 171.523 40.808C170.883 41.1707 170.115 41.352 169.219 41.352C168.024 41.352 167.032 41.0693 166.243 40.504C165.454 39.9493 165.006 39.192 164.899 38.232H166.707C166.846 38.6907 167.139 39.0587 167.587 39.336C168.046 39.624 168.59 39.768 169.219 39.768C169.955 39.768 170.547 39.544 170.995 39.096C171.454 38.648 171.683 37.9973 171.683 37.144V35.672C171.374 36.088 170.952 36.44 170.419 36.728C169.896 37.0053 169.299 37.144 168.627 37.144C167.859 37.144 167.155 36.952 166.515 36.568C165.886 36.1733 165.384 35.6293 165.011 34.936C164.648 34.232 164.467 33.4373 164.467 32.552C164.467 31.6667 164.648 30.8827 165.011 30.2C165.384 29.5173 165.886 28.9893 166.515 28.616C167.155 28.232 167.859 28.04 168.627 28.04ZM171.683 32.584C171.683 31.976 171.555 31.448 171.299 31C171.054 30.552 170.728 30.2107 170.323 29.976C169.918 29.7413 169.48 29.624 169.011 29.624C168.542 29.624 168.104 29.7413 167.699 29.976C167.294 30.2 166.963 30.536 166.707 30.984C166.462 31.4213 166.339 31.944 166.339 32.552C166.339 33.16 166.462 33.6933 166.707 34.152C166.963 34.6107 167.294 34.9627 167.699 35.208C168.115 35.4427 168.552 35.56 169.011 35.56C169.48 35.56 169.918 35.4427 170.323 35.208C170.728 34.9733 171.054 34.632 171.299 34.184C171.555 33.7253 171.683 33.192 171.683 32.584ZM180.367 28.04C181.06 28.04 181.679 28.184 182.223 28.472C182.777 28.76 183.209 29.1867 183.519 29.752C183.828 30.3173 183.983 31 183.983 31.8V37H182.175V32.072C182.175 31.2827 181.977 30.68 181.583 30.264C181.188 29.8373 180.649 29.624 179.967 29.624C179.284 29.624 178.74 29.8373 178.335 30.264C177.94 30.68 177.743 31.2827 177.743 32.072V37H175.919V28.184H177.743V29.192C178.041 28.8293 178.42 28.5467 178.879 28.344C179.348 28.1413 179.844 28.04 180.367 28.04ZM198.45 28.184V37H196.626V35.96C196.338 36.3227 195.959 36.6107 195.49 36.824C195.031 37.0267 194.54 37.128 194.018 37.128C193.324 37.128 192.7 36.984 192.146 36.696C191.602 36.408 191.17 35.9813 190.85 35.416C190.54 34.8507 190.386 34.168 190.386 33.368V28.184H192.194V33.096C192.194 33.8853 192.391 34.4933 192.786 34.92C193.18 35.336 193.719 35.544 194.402 35.544C195.084 35.544 195.623 35.336 196.018 34.92C196.423 34.4933 196.626 33.8853 196.626 33.096V28.184H198.45ZM202.68 29.48C202.99 29.0747 203.411 28.7333 203.944 28.456C204.478 28.1787 205.08 28.04 205.752 28.04C206.52 28.04 207.219 28.232 207.848 28.616C208.488 28.9893 208.99 29.5173 209.352 30.2C209.715 30.8827 209.896 31.6667 209.896 32.552C209.896 33.4373 209.715 34.232 209.352 34.936C208.99 35.6293 208.488 36.1733 207.848 36.568C207.219 36.952 206.52 37.144 205.752 37.144C205.08 37.144 204.483 37.0107 203.96 36.744C203.438 36.4667 203.011 36.1253 202.68 35.72V41.192H200.856V28.184H202.68V29.48ZM208.04 32.552C208.04 31.944 207.912 31.4213 207.656 30.984C207.411 30.536 207.08 30.2 206.664 29.976C206.259 29.7413 205.822 29.624 205.352 29.624C204.894 29.624 204.456 29.7413 204.04 29.976C203.635 30.2107 203.304 30.552 203.048 31C202.803 31.448 202.68 31.976 202.68 32.584C202.68 33.192 202.803 33.7253 203.048 34.184C203.304 34.632 203.635 34.9733 204.04 35.208C204.456 35.4427 204.894 35.56 205.352 35.56C205.822 35.56 206.259 35.4427 206.664 35.208C207.08 34.9627 207.411 34.6107 207.656 34.152C207.912 33.6933 208.04 33.16 208.04 32.552Z" fill="white"/>
<path d="M235 32L217 43L227.5 32L217 21L235 32Z" fill="url(#paint2_linear_618_20)"/>
<defs>
<linearGradient id="paint0_linear_618_20" x1="180.5" y1="0" x2="180.5" y2="57" gradientUnits="userSpaceOnUse">
<stop stop-color="white"/>
<stop offset="0.598958" stop-color="#CCCCCC"/>
<stop offset="1" stop-opacity="0"/>
</linearGradient>
<linearGradient id="paint1_linear_618_20" x1="350.5" y1="71.5" x2="180" y2="-33.5" gradientUnits="userSpaceOnUse">
<stop stop-color="white"/>
<stop stop-color="white"/>
<stop offset="0.125" stop-color="#D3D3D3" stop-opacity="0.828493"/>
<stop offset="0.283316" stop-color="#8E8E8E" stop-opacity="0.558267"/>
<stop offset="0.770745" stop-opacity="0"/>
</linearGradient>
<linearGradient id="paint2_linear_618_20" x1="226" y1="21" x2="226" y2="49.5" gradientUnits="userSpaceOnUse">
<stop offset="0.0551442" stop-color="white"/>
<stop offset="1" stop-color="white" stop-opacity="0"/>
</linearGradient>
</defs>
</svg>
